{"title":"Funny Games (1997) DVDRip XViD German (original) + softsubs","uid":6451056,"size":1013054467,"categoryP":"video","categoryS":"movies","magnet":"?xt=urn:btih:145494c9273998c843d54c2efd49fb90e44b153f&amp;dn=Funny+Games+%281997%29+DVDRip+XViD+German+%28original%29+%2B+softsubs&amp;tr=udp%3A%2F%2Ftracker.openbittorrent.com%3A80&amp;tr=udp%3A%2F%2Fopen.demonii.com%3A1337&amp;tr=udp%3A%2F%2Ftracker.coppersurfer.tk%3A6969&amp;tr=udp%3A%2F%2Fexodus.desync.com%3A6969","seeders":3,"leechers":1,"uploader":"frogshare","files":-1,"time":1307430072,"description":"Funny Games (1997)\n &lt;a href=&quot;\nhttp://www.imdb.com/title/tt0119167/&quot; rel=&quot;nofollow&quot; target=&quot;_NEW&quot;&gt;\nhttp://www.imdb.com/title/tt0119167/&lt;/a&gt;\n\nDirector: Michael Haneke\nGenre: Crime | Drama | Mystery | Thriller\n\nTwo psychotic young men take a mother, father, and son hostage in their vacation cabin and force them to play sadistic &quot;games&quot; with one another for their own amusement. \n\n\nDuration                         : 1h 44mn\nOverall bit rate                 : 1 297 Kbps\n\nCodec ID/Hint                    : XviD\nBit rate                         : 1 161 Kbps\nWidth                            : 720 pixels\nHeight                           : 416 pixels\nDisplay aspect ratio             : 16:9\nFrame rate                       : 25.000 fps\nStream size                      : 865 MiB (90%)\n\nCodec ID/Hint                    : MP3\nBit rate mode                    : Constant\nBit rate                         : 128 Kbps\nChannel(s)                       : 2 channels\nSampling rate                    : 48.0 KHz\nStream size                      : 94.2 MiB (10%)\n &lt;a href=&quot;\nhttp://www.shotpix.com/images/91866365012053097228.jpg&quot; rel=&quot;nofollow&quot; target=&quot;_NEW&quot;&gt;\nhttp://www.shotpix.com/images/91866365012053097228.jpg&lt;/a&gt; &lt;a href=&quot;\nhttp://www.shotpix.com/images/48375225779312126105.jpg&quot; rel=&quot;nofollow&quot; target=&quot;_NEW&quot;&gt;\nhttp://www.shotpix.com/images/48375225779312126105.jpg&lt;/a&gt; &lt;a href=&quot;\nhttp://www.shotpix.com/images/34850752661467432605.jpg&quot; rel=&quot;nofollow&quot; target=&quot;_NEW&quot;&gt;\nhttp://www.shotpix.com/images/34850752661467432605.jpg&lt;/a&gt; &lt;a href=&quot;\nhttp://www.shotpix.com/images/28436126311590184549.jpg&quot; rel=&quot;nofollow&quot; target=&quot;_NEW&quot;&gt;\nhttp://www.shotpix.com/images/28436126311590184549.jpg&lt;/a&gt; &lt;a href=&quot;\nhttp://www.shotpix.com/images/80417052166126680382.jpg&quot; rel=&quot;nofollow&quot; target=&quot;_NEW&quot;&gt;\nhttp://www.shotpix.com/images/80417052166126680382.jpg&lt;/a&gt; &lt;a href=&quot;\nhttp://www.shotpix.com/images/13109608040650256122.jpg&quot; rel=&quot;nofollow&quot; target=&quot;_NEW&quot;&gt;\nhttp://www.shotpix.com/images/13109608040650256122.jpg&lt;/a&gt; &lt;a href=&quot;\nhttp://www.shotpix.com/images/85913618560525084947.jpg&quot; rel=&quot;nofollow&quot; target=&quot;_NEW&quot;&gt;\nhttp://www.shotpix.com/images/85913618560525084947.jpg&lt;/a&gt; &lt;a href=&quot;\nhttp://www.shotpix.com/images/63882912162817756463.jpg&quot; rel=&quot;nofollow&quot; target=&quot;_NEW&quot;&gt;\nhttp://www.shotpix.com/images/63882912162817756463.jpg&lt;/a&gt; &lt;a href=&quot;\nhttp://www.shotpix.com/images/26625096640122669487.jpg&quot; rel=&quot;nofollow&quot; target=&quot;_NEW&quot;&gt;\nhttp://www.shotpix.com/images/26625096640122669487.jpg&lt;/a&gt; &lt;a href=&quot;\nhttp://www.shotpix.com/images/67328799231072261687.jpg&quot; rel=&quot;nofollow&quot; target=&quot;_NEW&quot;&gt;\nhttp://www.shotpix.com/images/67328799231072261687.jpg&lt;/a&gt; &lt;a href=&quot;\nhttp://www.shotpix.com/images/32057381227288437793.jpg&quot; rel=&quot;nofollow&quot; target=&quot;_NEW&quot;&gt;\nhttp://www.shotpix.com/images/32057381227288437793.jpg&lt;/a&gt;\n\nEnglish subtitles included (NOT hardcoded).\n\nEnjoy!","torrent":{"xt":"urn:btih:145494c9273998c843d54c2efd49fb90e44b153f","amp;dn":"Funny+Games+%281997%29+DVDRip+XViD+German+%28original%29+%2B+softsubs","amp;tr":["udp%3A%2F%2Ftracker.openbittorrent.com%3A80","udp%3A%2F%2Fopen.demonii.com%3A1337","udp%3A%2F%2Ftracker.coppersurfer.tk%3A6969","udp%3A%2F%2Fexodus.desync.com%3A6969"],"infoHash":"145494c9273998c843d54c2efd49fb90e44b153f","infoHashBuffer":{"type":"Buffer","data":[20,84,148,201,39,57,152,200,67,213,76,46,253,73,251,144,228,75,21,63]},"announce":[],"urlList":[]}}